<?xml version="1.0" encoding="UTF-8" standalone="no"?>
<!DOCTYPE svg PUBLIC "-//W3C//DTD SVG 1.1//EN" "http://www.w3.org/Graphics/SVG/1.1/DTD/svg11.dtd">
<svg width="100%" height="100%" viewBox="0 0 335 43" version="1.1" xmlns="http://www.w3.org/2000/svg" xmlns:xlink="http://www.w3.org/1999/xlink" xml:space="preserve" xmlns:serif="http://www.serif.com/" style="fill-rule:evenodd;clip-rule:evenodd;stroke-linejoin:round;stroke-miterlimit:2;">
    <g id="ArtBoard1" transform="matrix(0.9363,0,0,0.584985,-49.7236,-61.422)">
        <rect x="53.106" y="104.998" width="356.992" height="72.544" style="fill:none;"/>
        <clipPath id="_clip1">
            <rect x="53.106" y="104.998" width="356.992" height="72.544"/>
        </clipPath>
        <g clip-path="url(#_clip1)">
            <g transform="matrix(2.13607,0,0,3.41889,211.744,134.472)">
                <path d="M0,4.489C-1.22,-0.909 -9.601,0.925 -9.601,-1.648C-9.601,-2.766 -8.445,-3.19 -7.483,-3.19C-6.095,-3.19 -4.977,-2.651 -4.129,-1.61L-0.585,-5.117C-2.319,-6.968 -5.054,-7.584 -7.521,-7.584C-11.45,-7.584 -15.38,-5.657 -15.38,-1.263C-15.38,3.194 -11.572,3.871 -8.716,4.486C-7.003,4.853 -5.632,5.203 -5.632,6.33C-5.632,7.332 -6.943,7.68 -8.252,7.68C-9.986,7.68 -11.258,6.947 -12.337,5.636L-15.843,9.53C-13.994,11.418 -11.104,12.073 -8.483,12.073C-4.477,12.073 0.147,10.685 0.147,5.906C0.147,5.388 0.096,4.913 0,4.489" style="fill-rule:nonzero;"/>
            </g>
            <g transform="matrix(2.13607,0,0,3.41889,148.952,175.752)">
                <path d="M0,-19.658C-3.044,-19.658 -6.127,-18.655 -8.245,-16.651L-5.163,-13.491C-3.929,-14.878 -2.35,-15.726 -0.462,-15.726C1.541,-15.726 3.237,-14.416 3.237,-12.373C-1.083,-12.373 -7.85,-12.28 -9.201,-7.59C-9.356,-7.056 -9.44,-6.45 -9.44,-5.782C-9.44,-2.004 -6.28,0 -2.774,0C-0.424,0 1.887,-0.81 3.159,-2.813L3.237,-0.463L8.553,-0.463L8.553,-9.983C8.553,-16.228 6.743,-19.658 0,-19.658M3.237,-7.439C3.237,-5.126 1.117,-3.932 -1.156,-3.932C-2.428,-3.932 -3.892,-4.588 -3.892,-5.974C-3.892,-6.678 -3.591,-7.199 -3.119,-7.585C-1.884,-8.592 0.529,-8.673 1.811,-8.673L3.237,-8.673L3.237,-7.439Z" style="fill-rule:nonzero;"/>
            </g>
            <g transform="matrix(2.13607,0,0,3.41889,115.691,134.474)">
                <path d="M0,4.489L4.132,-7.122L-1.725,-7.122L-5.188,4.489L-5.23,4.635L-5.275,4.489L-8.775,-7.122L-15.094,-7.122L-18.252,4.489L-18.292,4.635L-18.34,4.489L-22.185,-7.122L-28.349,-7.122L-21.49,11.611L-15.673,11.611L-12.204,-0.839L-10.507,4.489L-8.236,11.611L-2.534,11.611L0,4.489Z" style="fill-rule:nonzero;"/>
            </g>
            <g transform="matrix(2.13607,0,0,3.41889,244.765,125.937)">
                <path d="M0,9.482C-2.032,9.482 -3.493,8.529 -4.18,6.986C-4.471,6.334 -4.624,5.577 -4.624,4.742C-4.624,1.927 -2.89,0.001 0,0.001C1.194,0.001 2.272,0.618 2.851,1.426L6.665,-2.582C4.854,-4.432 2.195,-5.088 0,-5.088C-5.78,-5.088 -10.404,-1.234 -10.404,4.742C-10.404,5.525 -10.324,6.273 -10.173,6.98C-9.17,11.655 -5.021,14.57 0,14.57C2.195,14.57 4.854,13.915 6.665,12.065L2.851,8.056C2.195,8.827 1.272,9.482 0,9.482" style="fill-rule:nonzero;"/>
            </g>
            <g transform="matrix(2.13607,0,0,3.41889,357.505,134.474)">
                <path d="M0,4.489C-1.22,-0.909 -9.601,0.925 -9.601,-1.648C-9.601,-2.766 -8.445,-3.19 -7.483,-3.19C-6.095,-3.19 -4.977,-2.651 -4.129,-1.61L-0.585,-5.117C-2.319,-6.968 -5.054,-7.584 -7.521,-7.584C-11.45,-7.584 -15.38,-5.657 -15.38,-1.263C-15.38,3.194 -11.572,3.871 -8.716,4.486C-7.003,4.853 -5.632,5.203 -5.632,6.33C-5.632,7.332 -6.943,7.68 -8.252,7.68C-9.986,7.68 -11.258,6.947 -12.337,5.636L-15.843,9.53C-13.994,11.418 -11.104,12.073 -8.483,12.073C-4.477,12.073 0.147,10.685 0.147,5.906C0.147,5.388 0.096,4.913 0,4.489" style="fill-rule:nonzero;"/>
            </g>
            <g transform="matrix(2.13607,0,0,3.41889,389.717,175.752)">
                <path d="M0,-19.658C-3.044,-19.658 -6.127,-18.655 -8.245,-16.651L-5.163,-13.491C-3.929,-14.878 -2.35,-15.726 -0.462,-15.726C1.541,-15.726 3.237,-14.416 3.237,-12.373C-1.083,-12.373 -7.85,-12.28 -9.201,-7.59C-9.356,-7.056 -9.44,-6.45 -9.44,-5.781C-9.44,-2.004 -6.28,0 -2.774,0C-0.424,0 1.887,-0.81 3.159,-2.813L3.237,-0.463L8.553,-0.463L8.553,-9.983C8.553,-16.228 6.743,-19.658 0,-19.658M3.237,-7.439C3.237,-5.126 1.117,-3.932 -1.156,-3.932C-2.428,-3.932 -3.892,-4.588 -3.892,-5.974C-3.892,-6.678 -3.591,-7.199 -3.119,-7.585C-1.884,-8.591 0.529,-8.673 1.811,-8.673L3.237,-8.673L3.237,-7.439Z" style="fill-rule:nonzero;"/>
            </g>
            <g transform="matrix(2.13607,0,0,3.41889,267.664,142.149)">
                <path d="M0,-0.001C0,-5.872 4.758,-10.63 10.627,-10.63C16.495,-10.63 21.252,-5.872 21.252,-0.001C21.252,5.87 16.495,10.629 10.627,10.629C4.758,10.629 0,5.87 0,-0.001M11.903,8.738C11.903,8.738 11.105,8.856 11.858,8.752C16.133,8.164 19.617,4.726 20.088,0.242C20.133,-0.192 20.13,-0.179 20.119,-0.603L18.784,-1.853C18.859,-1.57 18.929,-1.28 18.975,-0.985C19.71,3.658 16.545,8.003 11.903,8.738M9.124,-9.431C9.124,-9.431 9.869,-9.738 9.164,-9.455C5.16,-7.849 2.609,-3.67 3.237,0.795C3.297,1.227 3.297,1.214 3.411,1.623L5.009,2.511C4.868,2.256 4.73,1.991 4.614,1.716C2.777,-2.611 4.798,-7.593 9.124,-9.431M5.598,-0.001C5.598,2.777 7.849,5.028 10.627,5.028C13.404,5.028 15.654,2.777 15.654,-0.001C15.654,-2.779 13.404,-5.03 10.627,-5.03C7.849,-5.03 5.598,-2.779 5.598,-0.001M6.771,-8.479C6.771,-8.479 7.487,-8.849 6.809,-8.506C2.959,-6.557 0.783,-2.171 1.797,2.221C1.894,2.646 1.893,2.634 2.044,3.03L3.712,3.776C3.548,3.534 3.388,3.283 3.249,3.02C1.042,-1.132 2.621,-6.271 6.771,-8.479M9.368,8.873C9.368,8.873 8.563,8.92 9.323,8.883C13.631,8.668 17.402,5.548 18.263,1.121C18.346,0.694 18.342,0.705 18.366,0.283L17.145,-1.078C17.196,-0.791 17.24,-0.496 17.26,-0.198C17.588,4.492 14.056,8.545 9.368,8.873" style="fill:rgb(239,125,0);fill-rule:nonzero;"/>
            </g>
            <g transform="matrix(2.13607,0,0,3.41889,287.153,149.684)">
                <path d="M0,-11.635C0,-11.635 0.746,-11.942 0.04,-11.659C-3.964,-10.053 -6.514,-5.874 -5.887,-1.408C-5.826,-0.977 -5.826,-0.989 -5.713,-0.581L-4.115,0.307C-4.255,0.052 -4.394,-0.213 -4.51,-0.488C-6.347,-4.815 -4.326,-9.797 0,-11.635" style="fill:white;fill-rule:nonzero;"/>
            </g>
            <g transform="matrix(2.13607,0,0,3.41889,293.089,136.218)">
                <path d="M0,10.473C0,10.473 -0.798,10.591 -0.045,10.487C4.23,9.898 7.714,6.461 8.185,1.977C8.23,1.543 8.227,1.556 8.216,1.132L6.881,-0.118C6.956,0.165 7.026,0.455 7.072,0.75C7.808,5.393 4.642,9.738 0,10.473" style="fill:white;fill-rule:nonzero;"/>
            </g>
            <g transform="matrix(2.13607,0,0,3.41889,282.128,153.792)">
                <path d="M0,-11.885C0,-11.885 0.716,-12.255 0.038,-11.912C-3.812,-9.962 -5.988,-5.577 -4.974,-1.184C-4.877,-0.76 -4.878,-0.772 -4.727,-0.376L-3.059,0.37C-3.223,0.129 -3.383,-0.123 -3.522,-0.386C-5.729,-4.538 -4.15,-9.677 0,-11.885" style="fill:white;fill-rule:nonzero;"/>
            </g>
            <g transform="matrix(2.13607,0,0,3.41889,304.533,169.636)">
                <path d="M0,-8.238C0.328,-3.548 -3.205,0.505 -7.892,0.833C-7.892,0.833 -8.697,0.88 -7.937,0.843C-3.629,0.628 0.142,-2.492 1.002,-6.918C1.086,-7.346 1.082,-7.334 1.106,-7.757L-0.116,-9.118C-0.064,-8.831 -0.02,-8.536 0,-8.238" style="fill:white;fill-rule:nonzero;"/>
            </g>
        </g>
    </g>
</svg>
